<?xml version="1.0" encoding="UTF-8" standalone="no"?>
<!-- Created with Inkscape (http://www.inkscape.org/) -->

<svg
   xmlns:dc="http://purl.org/dc/elements/1.1/"
   xmlns:cc="http://creativecommons.org/ns#"
   xmlns:rdf="http://www.w3.org/1999/02/22-rdf-syntax-ns#"
   xmlns:svg="http://www.w3.org/2000/svg"
   xmlns="http://www.w3.org/2000/svg"
   xmlns:sodipodi="http://sodipodi.sourceforge.net/DTD/sodipodi-0.dtd"
   xmlns:inkscape="http://www.inkscape.org/namespaces/inkscape"
   version="1.1"
   width="222.91875"
   height="222.91875"
   id="svg2985"
   xml:space="preserve"
   style="enable-background:new"
   inkscape:version="0.48.2 r9819"
   sodipodi:docname="logo.svgz"><sodipodi:namedview
     pagecolor="#ffffff"
     bordercolor="#666666"
     borderopacity="1"
     objecttolerance="10"
     gridtolerance="10"
     guidetolerance="10"
     inkscape:pageopacity="0"
     inkscape:pageshadow="2"
     inkscape:window-width="640"
     inkscape:window-height="480"
     id="namedview2992"
     showgrid="false"
     inkscape:zoom="2.5749292"
     inkscape:cx="111.45937"
     inkscape:cy="142.52819"
     inkscape:window-x="0"
     inkscape:window-y="0"
     inkscape:window-maximized="0"
     inkscape:current-layer="svg2985" /><metadata
     id="metadata2991"><rdf:RDF><cc:Work
         rdf:about=""><dc:format>image/svg+xml</dc:format><dc:type
           rdf:resource="http://purl.org/dc/dcmitype/StillImage" /><dc:title></dc:title></cc:Work></rdf:RDF></metadata><defs
     id="defs2989"><clipPath
       id="clipPath3019"><path
         d="M 0,612 792,612 792,0 0,0 0,612 z"
         id="path3021" /></clipPath></defs><g
     transform="matrix(1.25,0,0,-1.25,-115.53588,552.594)"
     id="g2993"><path
       d="m 181.5957,276.2832 -72.013,72.013 25.52,0 16.695,-16.696 29.777,0 -14.888,-14.887 14.889,-14.889 46.471,46.472 25.563,0 z m 29.798,97.931 16.695,-16.695 -92.943,0 46.471,46.472 14.889,-14.889 -14.888,-14.888 z m 53.099,-15.035 -76.626,76.625 -6.271,6.271 -6.271,-6.271 -76.625,-76.625 -6.271,-6.272 6.271,-6.27 76.625,-76.625 6.271,-6.272 6.271,6.272 76.626,76.625 6.271,6.27 z"
       id="path2997"
       style="fill:#4a707d;fill-opacity:1;fill-rule:nonzero;stroke:none" /></g></svg>